# File created by Blade
# Date/Time:  Tue Sep 23 19:22:32 2014
# Frame Rate: 120.000 fps
#------------------------------------------------------
:FULLY-SPECIFIED
:DEGREES
1504
root 3.235781 33.451811 5.743646 85.109027 -26.729172 -22.613095
Spine -56.581012 -16.692163 20.148148
Head -1.506601 18.033380 24.932274
LeftShoulder -19.645323 42.062428 23.763715
LeftArm 42.267448 -53.972456 -94.648243
LeftForeArm 48.444195 0.000000 102.046491
LeftHand 12.391884 -0.000000 41.919808
LeftHandThumb1 -26.253704 0.000000 33.147579
RightShoulder -54.301910 -52.209630 21.767973
RightArm 30.706973 33.141469 99.465841
RightForeArm 96.206391 -0.000000 1.573695
RightHand 9.171502 -0.000000 38.277704
RightHandThumb1 -24.326973 -0.000000 -32.862282
LeftUpLeg -76.020711 15.984539 -1.131671
LeftLeg 11.470157 -0.000000 -0.000000
LeftFoot -11.091196 8.454166 0.607402
LeftToeBase 3.446308 -0.000000 -0.000000
RightUpLeg -13.103035 -2.144877 -12.988500
RightLeg 119.650233 -0.000000 -0.000000
RightFoot 36.042717 5.610988 -1.396260
RightToeBase 31.619057 -0.000000 -0.000000
1505
root 3.220685 33.461997 5.725216 85.194104 -26.493722 -22.626226
Spine -56.731229 -16.868514 20.477191
Head -1.484352 18.159172 25.112151
LeftShoulder -19.717866 42.043926 23.852416
LeftArm 42.038119 -54.085702 -94.448443
LeftForeArm 48.698419 -0.000000 102.067475
LeftHand 12.157270 -0.000000 42.076186
LeftHandThumb1 -26.253704 0.000000 33.147579
RightShoulder -54.260193 -52.120779 21.761682
RightArm 30.636721 33.626091 99.630595
RightForeArm 95.221373 0.000000 2.416861
RightHand 9.054281 0.000000 38.675886
RightHandThumb1 -24.326973 -0.000000 -32.862282
LeftUpLeg -76.058775 16.066036 -1.119811
LeftLeg 11.175514 -0.000000 -0.000000
LeftFoot -10.929899 8.396146 0.767514
LeftToeBase 3.407192 -0.000000 -0.000000
RightUpLeg -13.087244 -2.189530 -13.030039
RightLeg 120.021413 -0.000000 -0.000000
RightFoot 36.028917 5.373026 -1.104761
RightToeBase 31.697823 -0.000000 -0.000000
1506
root 3.206687 33.474015 5.703094 85.340834 -26.296835 -22.727526
Spine -56.870738 -16.955618 20.745376
Head -1.426222 18.257855 25.281505
LeftShoulder -19.710759 42.024203 23.985652
LeftArm 41.753513 -54.208079 -94.156996
LeftForeArm 48.850767 -0.000000 102.139121
LeftHand 12.028059 -0.000000 42.160902
LeftHandThumb1 -26.253704 0.000000 33.147579
RightShoulder -54.246587 -52.044437 21.781397
RightArm 30.626927 34.261210 99.961751
RightForeArm 94.122268 0.000000 3.420267
RightHand 9.007209 -0.000000 38.947951
RightHandThumb1 -24.326973 -0.000000 -32.862282
LeftUpLeg -76.183310 16.250393 -1.201044
LeftLeg 10.972314 -0.000000 -0.000000
LeftFoot -10.779364 8.274503 0.971222
LeftToeBase 3.361920 -0.000000 -0.000000
RightUpLeg -13.134202 -2.135979 -13.119411
RightLeg 120.433110 -0.000000 -0.000000
RightFoot 36.034115 5.229678 -0.901149
RightToeBase 31.708563 -0.000000 -0.000000
1507
root 3.191347 33.481204 5.683385 85.442008 -26.050502 -22.819706
Spine -56.971973 -17.049071 21.049574
Head -1.376341 18.316381 25.453897
LeftShoulder -19.665827 42.010788 24.123289
LeftArm 41.439685 -54.319727 -93.828240
LeftForeArm 48.857690 -0.000000 102.282738
LeftHand 11.969623 -0.000000 42.179034
LeftHandThumb1 -26.253704 0.000000 33.147579
RightShoulder -54.174156 -51.973209 21.741681
RightArm 30.623995 34.990751 100.350779
RightForeArm 92.817585 -0.000000 4.509705
RightHand 9.086726 -0.000000 38.940363
RightHandThumb1 -24.326973 -0.000000 -32.862282
LeftUpLeg -76.281385 16.401296 -1.231922
LeftLeg 10.778076 -0.000000 -0.000000
LeftFoot -10.556783 8.318789 1.494005
LeftToeBase 3.171062 -0.000000 -0.000000
RightUpLeg -13.122645 -2.090584 -13.156556
RightLeg 120.802879 -0.000000 -0.000000
RightFoot 36.139955 5.033378 -0.894133
RightToeBase 31.743608 -0.000000 -0.000000
1508
root 3.177807 33.486875 5.663395 85.530773 -25.779985 -22.896523
Spine -57.048662 -17.155135 21.392089
Head -1.385063 18.408419 25.623164
LeftShoulder -19.694176 42.032739 24.153931
LeftArm 41.240967 -54.410515 -93.516417
LeftForeArm 48.759283 -0.000000 102.475880
LeftHand 11.971380 -0.000000 42.133248
LeftHandThumb1 -26.253704 0.000000 33.147579
RightShoulder -54.151769 -51.893935 21.757186
RightArm 30.704804 35.627719 100.703951
RightForeArm 91.585358 0.000000 5.565220
RightHand 9.147582 -0.000000 39.135593
RightHandThumb1 -24.326973 -0.000000 -32.862282
LeftUpLeg -76.397035 16.508390 -1.152864
LeftLeg 10.655987 -0.000000 -0.000000
LeftFoot -10.279994 8.407715 2.001130
LeftToeBase 2.856478 -0.000000 -0.000000
RightUpLeg -13.095293 -2.088038 -13.190525
RightLeg 121.165734 -0.000000 -0.000000
RightFoot 36.239795 4.597374 -0.989168
RightToeBase 31.825458 -0.000000 -0.000000
1509
root 3.166527 33.490576 5.645630 85.601674 -25.489273 -22.912896
Spine -57.159183 -17.294031 21.758792
Head -1.403712 18.501170 25.786170
LeftShoulder -19.709126 42.120077 24.203646
LeftArm 41.166667 -54.458325 -93.355010
LeftForeArm 48.676271 -0.000000 102.684668
LeftHand 12.043941 -0.000000 42.029107
LeftHandThumb1 -26.253704 0.000000 33.147579
RightShoulder -54.047734 -51.820750 21.710969
RightArm 30.723369 36.295556 101.018657
RightForeArm 90.343191 0.000000 6.722690
RightHand 9.216932 -0.000000 39.021067
RightHandThumb1 -24.326973 -0.000000 -32.862282
LeftUpLeg -76.563234 16.572075 -1.134378
LeftLeg 10.570541 -0.000000 -0.000000
LeftFoot -9.963239 8.424834 2.619744
LeftToeBase 2.509664 -0.000000 -0.000000
RightUpLeg -13.040452 -2.090665 -13.222420
RightLeg 121.496596 -0.000000 -0.000000
RightFoot 36.281993 4.209993 -1.041084
RightToeBase 32.145084 -0.000000 -0.000000
1510
root 3.160121 33.493291 5.629395 85.720469 -25.203958 -22.932393
Spine -57.292665 -17.382972 22.110290
Head -1.455841 18.544827 25.933900
LeftShoulder -19.661721 42.177961 24.283861
LeftArm 41.102819 -54.503171 -93.204233
LeftForeArm 48.603921 -0.000000 102.922429
LeftHand 12.074459 -0.000000 41.900270
LeftHandThumb1 -26.253704 0.000000 33.147579
RightShoulder -53.946190 -51.774172 21.685929
RightArm 30.731552 36.919525 101.299654
RightForeArm 88.990891 0.000000 7.888668
RightHand 9.119965 -0.000000 38.978936
RightHandThumb1 -24.326973 -0.000000 -32.862282
LeftUpLeg -76.812188 16.629166 -1.137134
LeftLeg 10.543181 -0.000000 -0.000000
LeftFoot -9.643610 8.435149 3.285359
LeftToeBase 2.150070 -0.000000 -0.000000
RightUpLeg -13.029557 -2.058700 -13.274689
RightLeg 121.851090 -0.000000 -0.000000
RightFoot 36.273887 3.889104 -1.196974
RightToeBase 32.295366 -0.000000 -0.000000
1511
root 3.152452 33.493142 5.614117 85.830355 -24.910342 -22.926812
Spine -57.425681 -17.475527 22.468127
Head -1.504292 18.605306 26.064073
LeftShoulder -19.636512 42.231784 24.329667
LeftArm 41.038756 -54.477051 -92.968469
LeftForeArm 48.613089 0.000000 103.169607
LeftHand 11.919315 -0.000000 41.909431
LeftHandThumb1 -26.253704 0.000000 33.147579
RightShoulder -53.869714 -51.730125 21.640253
RightArm 30.756821 37.415936 101.525341
RightForeArm 87.755028 -0.000000 8.994198
RightHand 9.067821 -0.000000 38.892615
RightHandThumb1 -24.326973 -0.000000 -32.862282
LeftUpLeg -77.039481 16.609989 -1.034590
LeftLeg 10.516656 -0.000000 -0.000000
LeftFoot -9.267212 8.645965 4.023206
LeftToeBase 1.646412 -0.000000 -0.000000
RightUpLeg -12.991675 -2.058206 -13.313560
RightLeg 122.190102 -0.000000 -0.000000
RightFoot 36.180676 3.445780 -1.487298
RightToeBase 32.482236 -0.000000 -0.000000
1512
root 3.144301 33.489665 5.596644 85.918628 -24.541264 -22.874433
Spine -57.562328 -17.585999 22.879017
Head -1.597667 18.626524 26.162010
LeftShoulder -19.572447 42.293243 24.430948
LeftArm 41.076703 -54.411137 -92.842794
LeftForeArm 48.729991 -0.000000 103.378315
LeftHand 11.884606 0.000000 41.937765
LeftHandThumb1 -26.253704 0.000000 33.147579
RightShoulder -53.809560 -51.708882 21.605553
RightArm 30.633195 37.703372 101.577408
RightForeArm 86.580131 -0.000000 10.202212
RightHand 8.846276 0.000000 38.949229
RightHandThumb1 -24.326973 -0.000000 -32.862282
LeftUpLeg -77.253062 16.512604 -0.811860
LeftLeg 10.470233 -0.000000 -0.000000
LeftFoot -8.873570 8.983349 4.845827
LeftToeBase 1.067011 -0.000000 -0.000000
RightUpLeg -12.924605 -2.127724 -13.271768
RightLeg 122.509216 -0.000000 -0.000000
RightFoot 36.067882 2.823569 -1.810502
RightToeBase 32.901652 -0.000000 -0.000000
1513
root 3.139725 33.485003 5.579304 86.018218 -24.170060 -22.822219
Spine -57.696161 -17.649353 23.234642
Head -1.671192 18.593323 26.283313
LeftShoulder -19.392619 42.310528 24.600621
LeftArm 41.152058 -54.343334 -92.745059
LeftForeArm 48.721869 -0.000000 103.615079
LeftHand 11.888748 0.000000 41.863349
LeftHandThumb1 -26.253704 0.000000 33.147579
RightShoulder -53.840006 -51.738947 21.664281
RightArm 30.607602 37.966764 101.710844
RightForeArm 85.817650 -0.000000 11.338056
RightHand 8.741938 0.000000 38.816380
RightHandThumb1 -24.326973 -0.000000 -32.862282
LeftUpLeg -77.470781 16.395590 -0.513634
LeftLeg 10.483531 -0.000000 -0.000000
LeftFoot -8.649094 9.323693 5.446982
LeftToeBase 0.918578 -0.000000 -0.000000
RightUpLeg -12.864501 -2.100838 -13.251877
RightLeg 122.811837 -0.000000 -0.000000
RightFoot 35.970738 2.272666 -1.932929
RightToeBase 33.269387 -0.000000 -0.000000
